<svg xmlns="http://www.w3.org/2000/svg" width="720" height="480" viewBox="0 0 720 480">
  <defs>
    <linearGradient id="bg5" x1="0" y1="0" x2="1" y2="1">
      <stop offset="0" stop-color="#0e1030"/>
      <stop offset="1" stop-color="#1e2a6e"/>
    </linearGradient>
  </defs>
  <rect width="720" height="480" fill="url(#bg5)"/>
  <g stroke="rgba(94,178,252,0.45)" stroke-width="1.5">
    <line x1="120" y1="120" x2="300" y2="200"/>
    <line x1="300" y1="200" x2="520" y2="110"/>
    <line x1="300" y1="200" x2="220" y2="340"/>
    <line x1="300" y1="200" x2="470" y2="330"/>
    <line x1="220" y1="340" x2="470" y2="330"/>
    <line x1="470" y1="330" x2="620" y2="220"/>
    <line x1="520" y1="110" x2="620" y2="220"/>
    <line x1="120" y1="120" x2="220" y2="340"/>
  </g>
  <g fill="#5eb2fc">
    <circle cx="120" cy="120" r="10"/>
    <circle cx="520" cy="110" r="8"/>
    <circle cx="220" cy="340" r="9"/>
    <circle cx="620" cy="220" r="7"/>
  </g>
  <circle cx="300" cy="200" r="14" fill="#27cbff"/>
  <circle cx="300" cy="200" r="24" fill="none" stroke="#27cbff" stroke-opacity="0.4" stroke-width="3"/>
  <circle cx="470" cy="330" r="11" fill="#8f7ff3"/>
  <g fill="rgba(255,255,255,0.25)">
    <circle cx="80" cy="400" r="3"/><circle cx="160" cy="420" r="3"/><circle cx="240" cy="400" r="3"/>
    <circle cx="480" cy="410" r="3"/><circle cx="560" cy="420" r="3"/><circle cx="640" cy="400" r="3"/>
  </g>
  <text x="90" y="440" font-family="Poppins, Arial, sans-serif" font-size="26" font-weight="700" fill="rgba(255,255,255,0.95)">The Digital Grid</text>
  <text x="90" y="466" font-family="Inter, Arial, sans-serif" font-size="15" fill="rgba(255,255,255,0.7)">Sensors, data &amp; AI across the network</text>
</svg>
